<?xml version="1.0" encoding="utf-8"?>
<!-- Generator: Adobe Illustrator 16.0.0, SVG Export Plug-In . SVG Version: 6.00 Build 0)  -->
<!DOCTYPE svg PUBLIC "-//W3C//DTD SVG 1.0//EN" "http://www.w3.org/TR/2001/REC-SVG-20010904/DTD/svg10.dtd">
<svg version="1.0" id="Layer_1" xmlns="http://www.w3.org/2000/svg" xmlns:xlink="http://www.w3.org/1999/xlink" x="0px" y="0px"
	 width="100px" height="100px" viewBox="0 0 100 100" enable-background="new 0 0 100 100" xml:space="preserve">
<path fill="#7986CB" d="M29.999,90v-6.27c0-5.814,2.266-11.283,6.381-15.396l13.619-13.621h0.002l13.616,13.621
	c4.114,4.115,6.384,9.584,6.384,15.396V90h6.666v-6.27c0-7.854-3.187-14.961-8.336-20.111L54.714,50l13.62-13.619
	c5.15-5.15,8.333-12.26,8.333-20.111V10h-6.666v6.27c0,5.814-2.266,11.283-6.381,15.396L50.001,45.287h-0.002L36.381,31.666
	c-4.114-4.116-6.382-9.584-6.382-15.396V10h-6.666v6.27c0,7.854,3.185,14.961,8.335,20.111L45.286,50l-13.62,13.619
	c-5.149,5.15-8.333,12.26-8.333,20.111V90H29.999z"/>
<path fill="#F44336" d="M36.381,31.666l5,5H58.62l5-5c0.533-0.533,1.034-1.09,1.505-1.666H34.878
	C35.348,30.576,35.848,31.133,36.381,31.666z"/>
<path fill="#F44336" d="M63.617,68.334l-4.999-5H41.379l-4.999,5c-0.533,0.533-1.034,1.09-1.505,1.666h30.246
	C64.65,69.424,64.15,68.867,63.617,68.334z"/>
<path fill="#F44336" d="M68.958,77.063H31.04c-0.682,2.128-1.041,4.37-1.041,6.667h40.002
	C70.001,81.434,69.641,79.191,68.958,77.063z"/>
<path fill="#F44336" d="M31.041,22.937h37.918c0.683-2.128,1.042-4.37,1.042-6.667H29.999
	C29.999,18.567,30.359,20.809,31.041,22.937z"/>
</svg>
